<svg width="40" height="40" viewBox="0 0 40 40" fill="none" xmlns="http://www.w3.org/2000/svg">
<path d="M0 4C0 1.79086 1.79086 0 4 0H36C38.2091 0 40 1.79086 40 4V36C40 38.2091 38.2091 40 36 40H4C1.79086 40 0 38.2091 0 36V4Z" fill="#27272A"/>
<path d="M27.5 27.5H12.5C12.1022 27.5 11.7206 27.342 11.4393 27.0607C11.158 26.7794 11 26.3978 11 26V15.5C11 15.1022 11.158 14.7206 11.4393 14.4393C11.7206 14.158 12.1022 14 12.5 14H15.5L17 11.75H23L24.5 14H27.5C27.8978 14 28.2794 14.158 28.5607 14.4393C28.842 14.7206 29 15.1022 29 15.5V26C29 26.3978 28.842 26.7794 28.5607 27.0607C28.2794 27.342 27.8978 27.5 27.5 27.5Z" stroke="#F4F4F5" stroke-width="1.5" stroke-linecap="round" stroke-linejoin="round"/>
<path d="M20 23.75C21.864 23.75 23.375 22.239 23.375 20.375C23.375 18.511 21.864 17 20 17C18.136 17 16.625 18.511 16.625 20.375C16.625 22.239 18.136 23.75 20 23.75Z" stroke="#F4F4F5" stroke-width="1.5" stroke-linecap="round" stroke-linejoin="round"/>
</svg>
